<svg xmlns="http://www.w3.org/2000/svg" xmlns:html="http://www.w3.org/1999/xhtml" xmlns:xlink="http://www.w3.org/1999/xlink" version="1.1" class="blocklySvg" width="2150px" height="1843px" style="display: block;"><defs><filter id="blocklyStackGlowFilter35788217083083396" height="160%" width="180%" y="-30%" x="-40%"><feGaussianBlur in="SourceGraphic" stdDeviation="4"></feGaussianBlur><feComponentTransfer result="outBlur"><feFuncA type="table" tableValues="0 1 1 1 1 1 1 1 1 1 1 1 1 1 1 1 1"></feFuncA></feComponentTransfer><feFlood flood-color="#FFF200" flood-opacity="1" result="outColor"></feFlood><feComposite in="outColor" in2="outBlur" operator="in" result="outGlow"></feComposite><feComposite in="SourceGraphic" in2="outGlow" operator="over"></feComposite></filter><filter id="blocklyReplacementGlowFilter35788217083083396" height="160%" width="180%" y="-30%" x="-40%"><feGaussianBlur in="SourceGraphic" stdDeviation="2"></feGaussianBlur><feComponentTransfer result="outBlur"><feFuncA type="table" tableValues="0 1 1 1 1 1 1 1 1 1 1 1 1 1 1 1 1"></feFuncA></feComponentTransfer><feFlood flood-color="#FFFFFF" flood-opacity="1" result="outColor"></feFlood><feComposite in="outColor" in2="outBlur" operator="in" result="outGlow"></feComposite><feComposite in="SourceGraphic" in2="outGlow" operator="over"></feComposite></filter><pattern id="blocklyDisabledPattern35788217083083396" patternUnits="userSpaceOnUse" width="10" height="10"><rect width="10" height="10" fill="#aaa"></rect><path d="M 0 0 L 10 10 M 10 0 L 0 10" stroke="#cc0"></path></pattern><pattern id="blocklyGridPattern35788217083083396" patternUnits="userSpaceOnUse" width="27" height="27" x="1005.9999999999808" y="4.547473508864641e-13"><line stroke="#ddd" stroke-width="0.675" x1="13.162500000000001" y1="13.8375" x2="14.512500000000001" y2="13.8375"></line><line stroke="#ddd" stroke-width="0.675" x1="13.8375" y1="13.162500000000001" x2="13.8375" y2="14.512500000000001"></line></pattern></defs><g class="blocklyWorkspace"><rect height="100%" width="100%" class="blocklyMainBackground" style="fill: url(&quot;#blocklyGridPattern35788217083083396&quot;);"></rect><g class="blocklyBlockCanvas" transform="translate(1005.9999999999808,4.547473508864641e-13) scale(0.675)"><g data-id="WmwOm*+qz5|,}%%pi-Z=" class="blocklyDraggable" data-shapes="hat" data-category="events" transform="translate(0,0)"><path class="blocklyPath blocklyBlockBackground" stroke="#CC9900" fill="#FFBF00" fill-opacity="1" d="m 0,0 c 25,-22 71,-22 96,0 H 170.255859375 a 4,4 0 0,1 4,4 v 40  a 4,4 0 0,1 -4,4 H 48   c -2,0 -3,1 -4,2 l -4,4 c -1,1 -2,2 -4,2 h -12 c -2,0 -3,-1 -4,-2 l -4,-4 c -1,-1 -2,-2 -4,-2 H 4 a 4,4 0 0,1 -4,-4 z"></path><g data-id=",N}`Qv/b]*1{^@?_Xpzy" class="blocklyDraggable" data-shapes="stack" data-category="looks" transform="translate(0,48)"><path class="blocklyPath blocklyBlockBackground" stroke="#774DCB" fill="#9966FF" fill-opacity="1" d="m 0,4 A 4,4 0 0,1 4,0 H 12 c 2,0 3,1 4,2 l 4,4 c 1,1 2,2 4,2 h 12 c 2,0 3,-1 4,-2 l 4,-4 c 1,-1 2,-2 4,-2 H 62.3999137878418 a 4,4 0 0,1 4,4 v 40  a 4,4 0 0,1 -4,4 H 48   c -2,0 -3,1 -4,2 l -4,4 c -1,1 -2,2 -4,2 h -12 c -2,0 -3,-1 -4,-2 l -4,-4 c -1,-1 -2,-2 -4,-2 H 4 a 4,4 0 0,1 -4,-4 z"></path><text class="blocklyText" y="2" text-anchor="middle" dominant-baseline="middle" dy="0" x="25.1999568939209" transform="translate(8, 24) ">cacher</text></g><text class="blocklyText" y="2" text-anchor="middle" dominant-baseline="middle" dy="0" x="23.407974243164062" transform="translate(8, 24) ">quand</text><g transform="translate(62.815948486328125, 12) "><image height="24px" width="24px" xlink:href="/static/blocks-media/green-flag.svg"></image></g><text class="blocklyText" y="2" text-anchor="middle" dominant-baseline="middle" dy="0" x="35.71995544433594" transform="translate(94.81594848632812, 24) ">est&nbsp;cliqué</text></g><g data-id="f`nfe#-{jk~YIsqoXJgR" class="blocklyDraggable" data-shapes="hat" data-category="events" transform="translate(0,152)"><path class="blocklyPath blocklyBlockBackground" stroke="#CC9900" fill="#FFBF00" fill-opacity="1" d="m 0,0 c 25,-22 71,-22 96,0 H 318.4155578613281 a 4,4 0 0,1 4,4 v 40  a 4,4 0 0,1 -4,4 H 48   c -2,0 -3,1 -4,2 l -4,4 c -1,1 -2,2 -4,2 h -12 c -2,0 -3,-1 -4,-2 l -4,-4 c -1,-1 -2,-2 -4,-2 H 4 a 4,4 0 0,1 -4,-4 z"></path><g data-id="lhI[kKGaZta;wL]T)AH0" class="blocklyDraggable" data-shapes="stack" data-category="looks" transform="translate(0,48)"><path class="blocklyPath blocklyBlockBackground" stroke="#774DCB" fill="#9966FF" fill-opacity="1" d="m 0,4 A 4,4 0 0,1 4,0 H 12 c 2,0 3,1 4,2 l 4,4 c 1,1 2,2 4,2 h 12 c 2,0 3,-1 4,-2 l 4,-4 c 1,-1 2,-2 4,-2 H 69.7918586730957 a 4,4 0 0,1 4,4 v 40  a 4,4 0 0,1 -4,4 H 48   c -2,0 -3,1 -4,2 l -4,4 c -1,1 -2,2 -4,2 h -12 c -2,0 -3,-1 -4,-2 l -4,-4 c -1,-1 -2,-2 -4,-2 H 4 a 4,4 0 0,1 -4,-4 z"></path><g data-id="}JwQJB;Z:??yc1EoLe/+" class="blocklyDraggable" data-shapes="stack" data-category="looks" transform="translate(0,48)"><path class="blocklyPath blocklyBlockBackground" stroke="#774DCB" fill="#9966FF" fill-opacity="1" d="m 0,4 A 4,4 0 0,1 4,0 H 12 c 2,0 3,1 4,2 l 4,4 c 1,1 2,2 4,2 h 12 c 2,0 3,-1 4,-2 l 4,-4 c 1,-1 2,-2 4,-2 H 126.76787567138672 a 4,4 0 0,1 4,4 v 40  a 4,4 0 0,1 -4,4 H 48   c -2,0 -3,1 -4,2 l -4,4 c -1,1 -2,2 -4,2 h -12 c -2,0 -3,-1 -4,-2 l -4,-4 c -1,-1 -2,-2 -4,-2 H 4 a 4,4 0 0,1 -4,-4 z"></path><g data-id="d:^@i.?T.]/z!~sDH]U0" data-argument-type="text" data-shapes="argument round" transform="translate(48,8)"><path class="blocklyPath blocklyBlockBackground" stroke="#774DCB" fill="#FFFFFF" fill-opacity="1" d="m 0,0 m 16,0 H 58.76787567138672 a 16 16 0 0 1 0 32 H 16 a 16 16 0 0 1 0 -32 z"></path><g class="blocklyEditableText" transform="translate(8, 0) " style="cursor: text;"><text class="blocklyText" x="29.38393783569336" y="18" dominant-baseline="middle" dy="0" text-anchor="middle">Perdu&nbsp;!</text></g></g><text class="blocklyText" y="2" text-anchor="middle" dominant-baseline="middle" dy="0" x="13.935953140258789" transform="translate(8, 24) ">dire</text><path class="blocklyPath" style="visibility: hidden" d="" fill="#774DCB"></path></g><text class="blocklyText" y="2" text-anchor="middle" dominant-baseline="middle" dy="0" x="28.89592933654785" transform="translate(8, 24) ">montrer</text></g><text class="blocklyText" y="2" text-anchor="middle" dominant-baseline="middle" dy="0" x="56.623931884765625" transform="translate(8, 24) ">quand&nbsp;je&nbsp;reçois</text><g data-argument-type="variable" class="blocklyEditableText" transform="translate(129.24786376953125, 8) " style="cursor: default;"><rect rx="4" ry="4" x="0" y="0" width="185.16769409179688" height="32" stroke="#CC9900" fill="#FFBF00" class="blocklyBlockBackground" fill-opacity="1"></rect><text class="blocklyText blocklyDropdownText" x="82.58384704589844" y="18" dominant-baseline="middle" dy="0" text-anchor="middle">une&nbsp;mine&nbsp;a&nbsp;explosé</text><image height="12px" width="12px" xlink:href="/static/blocks-media/dropdown-arrow.svg" transform="translate(161.16769409179688,11)"></image></g></g><g data-id="GRx6#7K*7kqVzg],GB%t" class="blocklyDraggable" data-shapes="hat" data-category="events" transform="translate(0,352)"><path class="blocklyPath blocklyBlockBackground" stroke="#CC9900" fill="#FFBF00" fill-opacity="1" d="m 0,0 c 25,-22 71,-22 96,0 H 286.68761444091797 a 4,4 0 0,1 4,4 v 40  a 4,4 0 0,1 -4,4 H 48   c -2,0 -3,1 -4,2 l -4,4 c -1,1 -2,2 -4,2 h -12 c -2,0 -3,-1 -4,-2 l -4,-4 c -1,-1 -2,-2 -4,-2 H 4 a 4,4 0 0,1 -4,-4 z"></path><g data-id="b`BQcJSflC*(SWeQ3fR[" class="blocklyDraggable" data-shapes="stack" data-category="looks" transform="translate(0,48)"><path class="blocklyPath blocklyBlockBackground" stroke="#774DCB" fill="#9966FF" fill-opacity="1" d="m 0,4 A 4,4 0 0,1 4,0 H 12 c 2,0 3,1 4,2 l 4,4 c 1,1 2,2 4,2 h 12 c 2,0 3,-1 4,-2 l 4,-4 c 1,-1 2,-2 4,-2 H 69.7918586730957 a 4,4 0 0,1 4,4 v 40  a 4,4 0 0,1 -4,4 H 48   c -2,0 -3,1 -4,2 l -4,4 c -1,1 -2,2 -4,2 h -12 c -2,0 -3,-1 -4,-2 l -4,-4 c -1,-1 -2,-2 -4,-2 H 4 a 4,4 0 0,1 -4,-4 z"></path><g data-id="TLk702o3ZJ*uTyjFik0J" class="blocklyDraggable" data-shapes="stack" data-category="looks" transform="translate(0,48)"><path class="blocklyPath blocklyBlockBackground" stroke="#774DCB" fill="#9966FF" fill-opacity="1" d="m 0,4 A 4,4 0 0,1 4,0 H 12 c 2,0 3,1 4,2 l 4,4 c 1,1 2,2 4,2 h 12 c 2,0 3,-1 4,-2 l 4,-4 c 1,-1 2,-2 4,-2 H 131.50391006469727 a 4,4 0 0,1 4,4 v 40  a 4,4 0 0,1 -4,4 H 48   c -2,0 -3,1 -4,2 l -4,4 c -1,1 -2,2 -4,2 h -12 c -2,0 -3,-1 -4,-2 l -4,-4 c -1,-1 -2,-2 -4,-2 H 4 a 4,4 0 0,1 -4,-4 z"></path><g data-id="q;MOVD`U,7E!iXM2-n8Z" data-argument-type="text" data-shapes="argument round" transform="translate(48,8)"><path class="blocklyPath blocklyBlockBackground" stroke="#774DCB" fill="#FFFFFF" fill-opacity="1" d="m 0,0 m 16,0 H 63.503910064697266 a 16 16 0 0 1 0 32 H 16 a 16 16 0 0 1 0 -32 z"></path><g class="blocklyEditableText" transform="translate(8, 0) " style="cursor: text;"><text class="blocklyText" x="31.751955032348633" y="18" dominant-baseline="middle" dy="0" text-anchor="middle">Gagné&nbsp;!</text></g></g><text class="blocklyText" y="2" text-anchor="middle" dominant-baseline="middle" dy="0" x="13.935953140258789" transform="translate(8, 24) ">dire</text><path class="blocklyPath" style="visibility: hidden" d="" fill="#774DCB"></path></g><text class="blocklyText" y="2" text-anchor="middle" dominant-baseline="middle" dy="0" x="28.89592933654785" transform="translate(8, 24) ">montrer</text></g><text class="blocklyText" y="2" text-anchor="middle" dominant-baseline="middle" dy="0" x="56.623931884765625" transform="translate(8, 24) ">quand&nbsp;je&nbsp;reçois</text><g data-argument-type="variable" class="blocklyEditableText" transform="translate(129.24786376953125, 8) " style="cursor: default;"><rect rx="4" ry="4" x="0" y="0" width="153.43975067138672" height="32" stroke="#CC9900" fill="#FFBF00" class="blocklyBlockBackground" fill-opacity="1"></rect><text class="blocklyText blocklyDropdownText" x="66.71987533569336" y="18" dominant-baseline="middle" dy="0" text-anchor="middle">partie&nbsp;terminée</text><image height="12px" width="12px" xlink:href="/static/blocks-media/dropdown-arrow.svg" transform="translate(129.43975067138672,11)"></image></g></g></g><g class="blocklyBubbleCanvas" transform="translate(1005.9999999999808,4.547473508864641e-13) scale(0.675)"></g><rect height="11" width="11" class="blocklyScrollbarBackground" x="2138.5" y="1831.5"></rect><g class="blocklyZoom" transform="translate(2091,1696)"><image width="36" height="36" y="44" xlink:href="/static/blocks-media/zoom-out.svg"></image><image width="36" height="36" y="0" xlink:href="/static/blocks-media/zoom-in.svg"></image><image width="36" height="36" y="88" xlink:href="/static/blocks-media/zoom-reset.svg"></image></g></g></svg>